<svg width="395" height="430" viewBox="0 0 395 430" fill="none" xmlns="http://www.w3.org/2000/svg">
<path d="M206.895 391.423L206.397 210.457L196.309 209.292L183.729 211.621L184.993 387.646L195.944 389.912L206.895 391.423Z" fill="#2F2325"/>
<path d="M244.718 138.957C235.391 118.437 210.245 65.6387 268.243 63.2294C326.241 60.82 330.692 167.001 365.4 175.939C342.101 190.085 273.531 202.296 244.718 138.957Z" fill="#2F2325"/>
<path d="M140.438 127.93C152.556 108.519 184.588 58.8713 126.564 57.4949C68.5406 56.1186 50.1087 155.765 14.1022 164.604C35.8176 177.311 103.165 187.667 140.438 127.93Z" fill="#2F2325"/>
<path d="M142.583 96.167C141.629 93.5504 142.461 90.6156 144.643 88.8957L152.462 82.7345C155.247 80.5403 159.277 81.028 161.464 83.8237L165.138 88.52C167.325 91.3158 166.841 95.3609 164.057 97.5551L154.714 104.917C151.287 107.618 146.23 106.172 144.733 102.064L142.583 96.167Z" fill="#A45A49"/>
<path d="M229.876 81.864C231.793 79.8514 234.789 79.3079 237.297 80.5178L246.235 84.831C249.431 86.3732 250.779 90.216 249.247 93.4142L246.66 98.8145C245.128 102.013 241.295 103.355 238.099 101.813L227.408 96.654C223.477 94.757 222.529 89.5741 225.536 86.4186L229.876 81.864Z" fill="#FF607E"/>
<path d="M164.517 292.723C168.238 276.765 158.364 260.801 142.463 257.067C126.563 253.333 110.656 263.242 106.935 279.201C103.215 295.159 113.089 311.123 128.989 314.857C144.89 318.591 160.797 308.682 164.517 292.723Z" fill="#ECD6C4"/>
<path d="M302.276 399L307 379.395L265.724 284L261 303.607L302.276 399Z" fill="#2F2325" stroke="#2F2325" stroke-width="1.79925" stroke-linecap="round" stroke-linejoin="round"/>
<path d="M141.22 299.232C148.525 296.175 151.977 287.752 148.93 280.421C145.884 273.089 137.492 269.625 130.187 272.682C122.881 275.74 119.429 284.162 122.476 291.494C125.523 298.826 133.915 302.29 141.22 299.232Z" fill="#2F2325" stroke="#2F2325" stroke-width="1.79925" stroke-linecap="round" stroke-linejoin="round"/>
<path d="M270.794 311.43C284.525 302.559 288.491 284.196 279.652 270.415C270.813 256.634 252.516 252.653 238.785 261.524C225.053 270.395 221.088 288.759 229.927 302.54C238.766 316.321 257.063 320.301 270.794 311.43Z" fill="#ECD6C4"/>
<path d="M267.828 292.484C271.128 285.264 267.971 276.726 260.776 273.414C253.582 270.102 245.075 273.271 241.775 280.491C238.475 287.712 241.632 296.25 248.826 299.562C256.021 302.873 264.528 299.705 267.828 292.484Z" fill="#2F2325" stroke="#2F2325" stroke-width="1.79925" stroke-linecap="round" stroke-linejoin="round"/>
<path d="M262.816 227.154C273.015 214.319 279.399 198.857 281.231 182.544C283.064 166.23 280.271 149.729 273.175 134.938C266.078 120.147 254.966 107.667 241.116 98.9324C227.266 90.198 211.241 85.5644 194.884 85.5644C178.527 85.5644 162.501 90.198 148.652 98.9324C134.802 107.667 123.69 120.147 116.593 134.938C109.497 149.729 106.704 166.23 108.537 182.544C110.369 198.857 116.752 214.319 126.952 227.154H262.816Z" fill="#ECD6C4"/>
<g filter="url(#filter0_f_1_86)">
<path d="M248.839 192.303C262.555 192.303 273.674 182.128 273.674 169.577C273.674 157.026 262.555 146.851 248.839 146.851C235.123 146.851 224.004 157.026 224.004 169.577C224.004 182.128 235.123 192.303 248.839 192.303Z" fill="#FEAFBE"/>
</g>
<g filter="url(#filter1_f_1_86)">
<path d="M140.732 192.303C154.448 192.303 165.567 182.128 165.567 169.577C165.567 157.026 154.448 146.851 140.732 146.851C127.016 146.851 115.897 157.026 115.897 169.577C115.897 182.128 127.016 192.303 140.732 192.303Z" fill="#FEAFBE"/>
</g>
<path d="M248.061 139.856H139.574C132.974 139.856 127.624 145.226 127.624 151.85V190.44C127.624 197.064 132.974 202.433 139.574 202.433H248.061C254.66 202.433 260.011 197.064 260.011 190.44V151.85C260.011 145.226 254.66 139.856 248.061 139.856Z" fill="#CC8373"/>
<path d="M146 159.38C147.419 162.811 150.004 165.793 153.417 167.932C156.831 170.073 161.284 164.899 165.5 165C169.716 165.101 173.498 170.473 177.044 168.5C180.589 166.526 183.363 163.674 185 160.316" stroke="#2F2325" stroke-width="8.99623" stroke-linecap="round" stroke-linejoin="round"/>
<path d="M205 161C206.419 164.431 209.004 167.412 212.417 169.552C215.831 171.693 220.284 166.518 224.5 166.62C228.716 166.721 232.498 172.093 236.044 170.12C239.589 168.146 242.363 165.294 244 161.935" stroke="#2F2325" stroke-width="8.99623" stroke-linecap="round" stroke-linejoin="round"/>
<path d="M180 192C180.461 189.791 182.24 187.758 185.002 186.285C187.764 184.813 191.318 184 195 184C198.681 184 202.235 184.813 204.997 186.285C207.759 187.758 209.537 189.791 210 192H180Z" fill="#ECD6C4" stroke="#2F2325" stroke-width="1.79925" stroke-linecap="round" stroke-linejoin="round"/>
<path d="M195.22 127.496C201.875 127.498 208.424 125.827 214.271 122.636C220.117 119.445 225.074 114.835 228.689 109.228L236.929 96.4279C223.872 89.1913 209.179 85.4507 194.265 85.5663C179.35 85.6818 164.716 89.6497 151.773 97.0877L164.176 112.541C167.907 117.205 172.633 120.969 178.005 123.558C183.378 126.146 189.261 127.492 195.22 127.496Z" fill="#CC8373"/>
<path d="M253.222 248.37C234.625 244.162 194.362 242.652 194.362 242.652C184.662 242.96 157.665 244.118 139.067 248.385C135.547 249.188 132.483 251.351 130.541 254.406C128.6 257.461 127.936 261.161 128.695 264.704L145.919 345.579C146.765 349.5 148.922 353.014 152.03 355.536C155.139 358.059 159.014 359.44 163.012 359.449H229.409C233.407 359.44 237.282 358.059 240.391 355.536C243.499 353.014 245.656 349.5 246.502 345.579L263.711 264.704C264.467 261.143 263.788 257.426 261.823 254.366C259.858 251.306 256.766 249.15 253.222 248.37Z" fill="#ECD6C4"/>
<path d="M244.749 246.816C224.574 243.796 194.406 242.652 194.406 242.652C179.635 243.077 164.898 244.3 150.258 246.318L169.776 359.449H222.821L244.749 246.816Z" fill="#CC8373"/>
<path d="M211.82 267.24H179.505C172.905 267.24 167.555 272.61 167.555 279.234V295.069C167.555 301.693 172.905 307.062 179.505 307.062H211.82C218.42 307.062 223.77 301.693 223.77 295.069V279.234C223.77 272.61 218.42 267.24 211.82 267.24Z" fill="#ECD6C4"/>
<path d="M186.225 283.647H177.124V292.781H186.225V283.647Z" fill="#ECD6C4" stroke="#2F2325" stroke-width="0.8" stroke-linecap="round" stroke-linejoin="round"/>
<path d="M200.206 283.647H191.104V292.781H200.206V283.647Z" fill="#ECD6C4" stroke="#2F2325" stroke-width="0.8" stroke-linecap="round" stroke-linejoin="round"/>
<path d="M214.201 283.647H205.1V292.781H214.201V283.647Z" fill="#ECD6C4" stroke="#2F2325" stroke-width="0.8" stroke-linecap="round" stroke-linejoin="round"/>
<path d="M226.932 89.1502C226.932 89.1502 233.445 87.1602 235.046 77.0607C232.281 56.2616 212.379 45.4502 205.864 45.5725C194.212 45.7841 180.895 80.5877 189.945 88.2132C199.235 96.2725 226.385 91.2895 226.932 89.1502Z" fill="#A45A49"/>
<path opacity="0.1" d="M227.561 79.3077C223.817 75.5693 208.807 58.6317 206.147 62.0305C202.783 66.3215 222.921 79.4542 222.921 79.4542C222.921 79.4542 200.649 72.4471 200.043 78.2396C199.636 82.1362 224.494 82.9329 224.494 82.9329L227.561 79.3077Z" fill="black"/>
<path d="M230.246 76.045C229.763 76.2272 229.294 76.4437 228.842 76.6929C226.861 77.7534 225.162 79.2753 223.888 81.1309C222.614 82.9865 221.802 85.1218 221.52 87.3575C221.178 91.5517 224.331 95.4852 227.425 97.8344C229.555 99.4615 232.016 100.599 234.633 101.166C237.25 101.734 239.959 101.717 242.569 101.117C244.898 100.421 246.97 99.0488 248.525 97.1744C250.08 95.3 251.049 93.0063 251.309 90.5814C252.204 80.1072 239.379 72.5977 230.246 76.045Z" fill="#A45A49"/>
<path opacity="0.2" d="M230.246 76.045C229.763 76.2272 229.294 76.4437 228.842 76.6929C226.861 77.7534 225.162 79.2753 223.888 81.1309C222.614 82.9865 221.802 85.1218 221.52 87.3575C221.178 91.5517 224.331 95.4852 227.425 97.8344C229.555 99.4615 232.016 100.599 234.633 101.166C237.25 101.734 239.959 101.717 242.569 101.117C244.898 100.421 246.97 99.0488 248.525 97.1744C250.08 95.3 251.049 93.0063 251.309 90.5814C252.204 80.1072 239.379 72.5977 230.246 76.045Z" fill="black"/>
<path d="M246.675 87.6387C250.983 82.4387 282.764 74.0443 293.617 90.2586C299.267 98.7089 281.514 129.425 271.153 129.536C256.129 129.722 241.763 109.707 242.272 98.5635C242.181 96.5319 242.527 94.5046 243.287 92.6193C244.047 90.7341 245.202 89.0353 246.675 87.6387Z" fill="#A45A49"/>
<path opacity="0.1" d="M244.507 90.3633C244.022 91.1818 243.599 92.036 243.242 92.9187C244.336 95.3796 262.655 112.26 264.584 108.801C266.513 105.343 248.088 92.8744 248.088 92.8744C248.088 92.8744 273.042 98.0556 273.336 93.3541C273.472 90.2593 247.944 89.1843 244.507 90.3633Z" fill="black"/>
<path d="M86.7241 393L82 373.395L123.276 278L128 297.607L86.7241 393Z" fill="#2F2325" stroke="#2F2325" stroke-width="1.79925" stroke-linecap="round" stroke-linejoin="round"/>
<defs>
<filter id="filter0_f_1_86" x="215.007" y="137.855" width="67.663" height="63.4444" filterUnits="userSpaceOnUse" color-interpolation-filters="sRGB">
<feFlood flood-opacity="0" result="BackgroundImageFix"/>
<feBlend mode="normal" in="SourceGraphic" in2="BackgroundImageFix" result="shape"/>
<feGaussianBlur stdDeviation="4.49811" result="effect1_foregroundBlur_1_86"/>
</filter>
<filter id="filter1_f_1_86" x="106.9" y="137.855" width="67.663" height="63.4444" filterUnits="userSpaceOnUse" color-interpolation-filters="sRGB">
<feFlood flood-opacity="0" result="BackgroundImageFix"/>
<feBlend mode="normal" in="SourceGraphic" in2="BackgroundImageFix" result="shape"/>
<feGaussianBlur stdDeviation="4.49811" result="effect1_foregroundBlur_1_86"/>
</filter>
</defs>
</svg>
